<?xml version="1.0" encoding="UTF-8"?>
<svg width="92px" height="12px" viewBox="0 0 92 12" version="1.1" xmlns="http://www.w3.org/2000/svg" xmlns:xlink="http://www.w3.org/1999/xlink">
    <title>Group 2 Copy</title>
    <g id="Page-1" stroke="none" stroke-width="1" fill="none" fill-rule="evenodd">
        <g id="כניסה" transform="translate(-134.000000, -142.000000)" fill="#FFFFFF">
            <g id="Group-2-Copy" transform="translate(180.000000, 148.000000) scale(1, -1) rotate(-180.000000) translate(-180.000000, -148.000000) translate(134.000000, 142.000000)">
                <path d="M28.22742,1.72692 C29.80044,1.59246 31.38102,1.58598 32.96592,1.67778 C34.55028,1.782 36.1314,2.00988 37.71522,2.30256 C34.70472,1.16694 31.42854,0.64044 28.17072,0.77328 C26.541,0.83268 24.9264,1.04976 23.33286,1.30518 L18.60624,2.16054 C17.04186,2.42838 15.47694,2.63574 13.90716,2.70918 C12.33684,2.77344 10.76058,2.7216 9.19458,2.51478 C8.41266,2.41272 7.63182,2.27448 6.85908,2.1033 C6.08148,1.9467 5.30982,1.75608 4.54356,1.539 C3.0132,1.09944 1.49958,0.5778 -3.83693077e-14,-1.53477231e-14 C1.40616,0.77436 2.86686,1.46664 4.38318,2.02878 C5.89302,2.60496 7.46064,3.05694 9.06444,3.34152 C12.2688,3.95928 15.6087,3.83724 18.7947,3.29292 C21.99204,2.77182 25.0776,1.97262 28.22742,1.72692" id="Fill-71"></path>
                <path d="M47.38122,2.3679 C46.8207,2.47968 46.27314,2.6433 45.74448,2.8512 C45.21528,2.6433 44.66664,2.4786 44.10558,2.36682 C42.08922,1.98774 40.00374,2.22588 38.0511,2.68974 C36.08928,3.15954 34.19874,3.78594 32.29308,4.28814 C30.38526,4.78872 28.48014,5.23746 26.54316,5.46156 C22.66866,5.9373 18.7326,5.44644 14.90778,4.29786 C16.68384,5.21586 18.603,5.87682 20.5902,6.26508 C22.5801,6.65118 24.63264,6.71652 26.6544,6.53778 C28.6767,6.3585 30.66876,5.93352 32.5917,5.36058 C34.51734,4.80006 36.39924,4.15206 38.28978,3.62448 C40.17492,3.10824 42.093,2.63412 44.04024,2.8161 C44.46198,2.85714 44.88318,2.93328 45.2979,3.0375 C45.03978,3.15522 44.78706,3.28212 44.54244,3.42468 C43.6671,3.92688 42.9057,4.64724 42.4251,5.5512 C41.94018,6.45894 41.72634,7.50114 41.87322,8.58222 C41.9553,9.12546 42.19614,9.65196 42.54498,10.08828 C42.90462,10.51542 43.35876,10.86156 43.86312,11.08242 C44.46954,11.3589 45.13752,11.48256 45.79362,11.45394 C46.41786,11.46636 47.04858,11.34378 47.62368,11.08134 C48.12804,10.86048 48.58218,10.51434 48.94182,10.0872 C49.29066,9.65088 49.53312,9.12384 49.61358,8.58168 C49.761,7.50006 49.54662,6.45732 49.06062,5.55066 C48.58218,4.6467 47.82024,3.92526 46.9449,3.4236 C46.70082,3.28158 46.44864,3.15468 46.19214,3.0375 C46.60524,2.93382 47.02536,2.85768 47.44656,2.81664 C49.39272,2.63628 51.31296,3.10878 53.1954,3.6261 C55.08756,4.15314 56.96892,4.80114 58.89564,5.36112 C60.81696,5.93406 62.80956,6.35904 64.83294,6.53832 C66.8547,6.71814 68.90778,6.65172 70.8966,6.26616 C72.8838,5.8779 74.80296,5.21586 76.57956,4.29894 C72.75474,5.44698 68.8176,5.93784 64.94364,5.46372 C63.00666,5.238 61.10154,4.79088 59.19426,4.28922 C57.28806,3.78648 55.39698,3.16008 53.4357,2.69082 C51.48252,2.22696 49.39758,1.98774 47.38122,2.3679 Z M46.84014,3.61206 C47.69874,4.06458 48.47958,4.74498 48.86946,5.64408 C49.2642,6.52644 49.23936,7.57404 48.99582,8.43372 C48.70476,9.28746 48.07944,9.95328 47.28024,10.35018 C46.80018,10.584 46.26612,10.70334 45.72342,10.72818 C45.19422,10.69902 44.67474,10.57968 44.20656,10.35126 C43.40844,9.95544 42.78204,9.288 42.49098,8.4348 C42.24636,7.57566 42.2226,6.52752 42.61788,5.64624 C43.00668,4.7466 43.78806,4.06674 44.64774,3.6126 C44.99874,3.429 45.36864,3.28698 45.74502,3.16764 C46.12086,3.28698 46.48968,3.42846 46.84014,3.61206 L46.84014,3.61206 Z" id="Fill-72"></path>
                <path d="M84.62772,2.10492 C83.85444,2.27556 83.07576,2.41434 82.29276,2.51586 C80.72784,2.72268 79.1505,2.77506 77.58018,2.70972 C76.00986,2.63574 74.44494,2.42946 72.87948,2.16162 L68.15448,1.30626 C66.5604,1.05084 64.9458,0.83376 63.31662,0.77544 C60.0588,0.6426 56.78046,1.16856 53.77266,2.30418 C55.35486,2.01096 56.93706,1.782 58.52088,1.67832 C60.10578,1.58598 61.68528,1.59354 63.25884,1.72854 C66.41028,1.9737 69.4953,2.77344 72.69102,3.29454 C75.87756,3.83886 79.218,3.95928 82.42344,3.34206 C84.02778,3.05802 85.5927,2.60604 87.10416,2.02986 C88.6194,1.46718 90.07902,0.77652 91.4868,-3.06954462e-14 C89.98722,0.57942 88.47306,1.09998 86.94324,1.54116 C86.17752,1.75662 85.40478,1.94778 84.62772,2.10492" id="Fill-73"></path>
            </g>
        </g>
    </g>
</svg>